<?xml version="1.0" encoding="UTF-8"?>
<svg width="450" height="125" version="1.1" viewBox="0 0 450 125" xmlns="http://www.w3.org/2000/svg">
 <g>
  <g transform="matrix(1.0122 0 -.27123 1.0058 -46.433 -228.11)" fill="#fff" shape-rendering="auto" aria-label="RE:Flex">
   <path d="m123.39 226.95v62.355h13.287v-20.568l18.127-0.082 17.322 20.65h13.619v-4.5234l-13.965-16.57 14.049-12.029v-16.652l-12.58-12.58zm15.604 13.287h30.859l2.6035 2.5293v9.9922l-2.6074 2.6074h-30.855c-0.84778 0-1.496-0.0138-1.9316-0.041-0.15524-0.01-0.24685-0.0233-0.34375-0.0351-7e-3 -0.10617-0.0143-0.21274-0.0195-0.37891-0.0139-0.44536-0.0215-1.0948-0.0215-1.9453v-10.412c0-0.85057 8e-3 -1.4933 0.0215-1.9238 5e-3 -0.14235 0.0118-0.22308 0.0176-0.31641 0.0971-0.0119 0.18961-0.0234 0.3457-0.0332 0.4357-0.0272 1.0839-0.043 1.9316-0.043z" color="#000000" color-rendering="auto" dominant-baseline="auto" image-rendering="auto" solid-color="#000000" style="font-feature-settings:normal;font-variant-alternates:normal;font-variant-caps:normal;font-variant-ligatures:normal;font-variant-numeric:normal;font-variant-position:normal;isolation:auto;mix-blend-mode:normal;shape-padding:0;text-decoration-color:#000000;text-decoration-line:none;text-decoration-style:solid;text-indent:0;text-orientation:mixed;text-transform:none;white-space:normal"/>
   <path d="m194.05 226.87v62.441h57.66v-13.287l-44.287-2e-3v-11.287h21.852l13.287-13.287-35.139-2e-3v-11.287h44.287v-13.289z" color="#000000" color-rendering="auto" dominant-baseline="auto" image-rendering="auto" solid-color="#000000" style="font-feature-settings:normal;font-variant-alternates:normal;font-variant-caps:normal;font-variant-ligatures:normal;font-variant-numeric:normal;font-variant-position:normal;isolation:auto;mix-blend-mode:normal;shape-padding:0;text-decoration-color:#000000;text-decoration-line:none;text-decoration-style:solid;text-indent:0;text-orientation:mixed;text-transform:none;white-space:normal"/>
   <path d="m259.07 239.15v13.203h13.117v-13.203zm0 25.035v12.83h13.117v-12.83z" color="#000000" color-rendering="auto" dominant-baseline="auto" image-rendering="auto" solid-color="#000000" style="font-feature-settings:normal;font-variant-alternates:normal;font-variant-caps:normal;font-variant-ligatures:normal;font-variant-numeric:normal;font-variant-position:normal;isolation:auto;mix-blend-mode:normal;shape-padding:0;text-decoration-color:#000000;text-decoration-line:none;text-decoration-style:solid;text-indent:0;text-orientation:mixed;text-transform:none;white-space:normal"/>
   <path d="m280.06 226.87v62.441h13.373v-24.576h21.852l13.287-13.287-35.139-2e-3v-11.287h44.287v-13.289z" color="#000000" color-rendering="auto" dominant-baseline="auto" image-rendering="auto" solid-color="#000000" style="font-feature-settings:normal;font-variant-alternates:normal;font-variant-caps:normal;font-variant-ligatures:normal;font-variant-numeric:normal;font-variant-position:normal;isolation:auto;mix-blend-mode:normal;shape-padding:0;text-decoration-color:#000000;text-decoration-line:none;text-decoration-style:solid;text-indent:0;text-orientation:mixed;text-transform:none;white-space:normal"/>
   <path d="m341.25 226.87v62.578l0.50195-4e-3 22.939-0.13672v-13.113h-10.242v-49.324z" color="#000000" color-rendering="auto" dominant-baseline="auto" image-rendering="auto" solid-color="#000000" style="font-feature-settings:normal;font-variant-alternates:normal;font-variant-caps:normal;font-variant-ligatures:normal;font-variant-numeric:normal;font-variant-position:normal;isolation:auto;mix-blend-mode:normal;shape-padding:0;text-decoration-color:#000000;text-decoration-line:none;text-decoration-style:solid;text-indent:0;text-orientation:mixed;text-transform:none;white-space:normal"/>
   <path d="m382.33 238.81-12.324 12.324v25.844l12.324 12.326h38.852v-13.117h-35.451l-2.6074-2.6094v-2.9629h38.059v-19.48l-12.326-12.324zm3.4004 13.117h19.725l2.6094 2.6094v4.3262h-24.941v-4.3262z" color="#000000" color-rendering="auto" dominant-baseline="auto" image-rendering="auto" solid-color="#000000" style="font-feature-settings:normal;font-variant-alternates:normal;font-variant-caps:normal;font-variant-ligatures:normal;font-variant-numeric:normal;font-variant-position:normal;isolation:auto;mix-blend-mode:normal;shape-padding:0;text-decoration-color:#000000;text-decoration-line:none;text-decoration-style:solid;text-indent:0;text-orientation:mixed;text-transform:none;white-space:normal"/>
   <path d="m426.92 238.81v4.2676l17.514 20.559-17.514 21.404v4.2637h13.451l12.562-15.326 12.479 15.326h13.453v-4.2617l-17.43-21.406 17.43-20.559v-4.2676h-13.533l-12.398 14.746-12.568-14.746z" color="#000000" color-rendering="auto" dominant-baseline="auto" image-rendering="auto" solid-color="#000000" style="font-feature-settings:normal;font-variant-alternates:normal;font-variant-caps:normal;font-variant-ligatures:normal;font-variant-numeric:normal;font-variant-position:normal;isolation:auto;mix-blend-mode:normal;shape-padding:0;text-decoration-color:#000000;text-decoration-line:none;text-decoration-style:solid;text-indent:0;text-orientation:mixed;text-transform:none;white-space:normal"/>
  </g>
  <path d="m386.52 0.0012342h31.739l31.739 31.537-31.739 31.537h-31.739l31.739-31.537z" fill="#ad02ff"/>
  <g transform="matrix(3.8258 0 -1.0251 3.8014 -128.99 -106.85)" fill="#ad02ff" stroke-width=".26458" aria-label="Dance">
   <path d="m97.241 60.992v-14.224h11.458q1.1458 0 1.9558 0.80998 0.80998 0.80998 0.80998 1.936v8.732q0 1.1261-0.80998 1.936-0.80997 0.80998-1.9558 0.80998zm3.2992-2.6275h7.6059q0.5334 0 0.61242-0.05927 0.079-0.07902 0.079-0.63218v-7.5861q0-0.55316-0.079-0.61242-0.079-0.07902-0.61242-0.07902h-7.6059q-0.55316 0-0.63218 0.07902-0.05927 0.05927-0.05927 0.61242v7.5861q0 0.55316 0.05927 0.63218 0.07902 0.05927 0.63218 0.05927z"/>
   <path d="m116.32 60.992q-1.1261 0-1.936-0.79022-0.79023-0.80998-0.79023-1.936v-4.3067h9.048v-1.1458q0-0.55316-0.079-0.61242-0.0593-0.07902-0.61243-0.07902h-8.3566v-2.588h8.9098q1.1261 0 1.9163 0.80998 0.80998 0.79022 0.80998 1.9163v8.732zm0.55316-2.588h5.7686v-2.1138h-6.4601v1.4224q0 0.55316 0.0593 0.63218 0.079 0.05927 0.63218 0.05927z"/>
   <path d="m127.13 60.992v-11.458h8.9098q1.1261 0 1.9163 0.80998 0.80998 0.79022 0.80998 1.9163v8.732h-2.588v-8.1788q0-0.55316-0.079-0.61242-0.0593-0.07902-0.61242-0.07902h-5.0772q-0.55316 0-0.63218 0.07902-0.0593 0.05927-0.0593 0.61242v8.1788z"/>
   <path d="m143.09 60.992q-1.1261 0-1.936-0.79022-0.79022-0.80998-0.79022-1.936v-6.0057q0-1.1261 0.79022-1.9163 0.80998-0.80998 1.936-0.80998h8.89v2.588h-8.3368q-0.55316 0-0.63218 0.07902-0.0593 0.05927-0.0593 0.61242v4.8994q0 0.55316 0.0593 0.63218 0.079 0.05927 0.63218 0.05927h8.3566v2.588z"/>
   <path d="m156.33 60.992q-1.1261 0-1.936-0.79022-0.79023-0.80998-0.79023-1.936v-6.0057q0-1.1261 0.79023-1.9163 0.80997-0.80998 1.936-0.80998h6.1835q1.1261 0 1.9163 0.80998 0.80998 0.79022 0.80998 1.9163v4.3067h-9.048v1.1458q0 0.55316 0.0593 0.63218 0.079 0.05927 0.63218 0.05927h8.3566v2.588zm-0.13829-6.7564h6.4601v-1.4224q0-0.55316-0.079-0.61242-0.0593-0.07902-0.61242-0.07902h-5.0772q-0.55316 0-0.63218 0.07902-0.0593 0.05927-0.0593 0.61242z"/>
  </g>
 </g>
</svg>
